<svg width="738" height="594" viewBox="0 0 738 594" fill="none" xmlns="http://www.w3.org/2000/svg">
<g id="undraw_bookshelves_re_lxoy 1">
<g id="plants-bottom">
<path id="Vector" d="M268.426 450.574C266.193 445.221 265.948 439.247 267.734 433.729C269.521 428.212 273.223 423.515 278.169 420.489C279.817 419.487 278.311 416.891 276.655 417.898C270.981 421.286 266.746 426.637 264.752 432.938C262.758 439.239 263.144 446.052 265.836 452.088C266.593 453.858 269.178 452.331 268.426 450.574Z" fill="white"/>
<path id="Vector_2" d="M269.284 454.609C265.238 447.44 266.19 438.862 267.646 431.11C269.165 423.017 271.157 414.801 269.433 406.571C268.652 402.575 266.802 398.865 264.08 395.837C262.77 394.413 260.653 396.539 261.959 397.958C267.048 403.485 267.638 411.503 266.812 418.624C265.839 427.022 263.08 435.206 263.422 443.741C263.512 448.07 264.634 452.315 266.694 456.123C266.902 456.452 267.229 456.687 267.607 456.78C267.986 456.872 268.385 456.814 268.721 456.617C269.057 456.421 269.303 456.102 269.409 455.727C269.514 455.352 269.469 454.951 269.284 454.609Z" fill="white"/>
<path id="Vector_3" d="M266.284 387.54C267.358 393.238 266.028 398.272 263.315 398.784C260.601 399.295 257.531 395.09 256.457 389.391C255.383 383.693 258.685 374.216 258.685 374.216C258.685 374.216 265.21 381.841 266.284 387.54Z" fill="white"/>
<path id="Vector_4" d="M286.877 414.052C283.477 418.749 278.907 421.245 276.67 419.625C274.433 418.006 275.377 412.886 278.777 408.188C282.177 403.491 291.33 399.375 291.33 399.375C291.33 399.375 290.278 409.355 286.877 414.052Z" fill="white"/>
</g>
<g id="plants-top">
<path id="Vector_5" d="M174.426 90.5737C172.193 85.2214 171.948 79.2468 173.734 73.7294C175.521 68.212 179.223 63.5155 184.169 60.4886C185.817 59.4869 184.311 56.8915 182.655 57.8981C176.981 61.2863 172.746 66.6373 170.752 72.9381C168.758 79.239 169.144 86.0522 171.836 92.0879C172.593 93.8576 175.178 92.331 174.426 90.5737Z" fill="white"/>
<path id="Vector_6" d="M175.284 94.6085C171.238 87.4401 172.19 78.8615 173.646 71.1096C175.165 63.0173 177.157 54.801 175.433 46.5706C174.652 42.5747 172.802 38.8653 170.08 35.8369C168.77 34.4135 166.653 36.5392 167.959 37.9582C173.048 43.4852 173.638 51.503 172.812 58.6237C171.839 67.0223 169.08 75.2063 169.422 83.7407C169.512 88.0696 170.634 92.3146 172.694 96.1227C172.902 96.4519 173.229 96.6874 173.607 96.7797C173.986 96.872 174.385 96.8137 174.721 96.6173C175.057 96.4209 175.303 96.1016 175.409 95.7269C175.514 95.3521 175.469 94.9511 175.284 94.6085Z" fill="white"/>
<path id="Vector_7" d="M172.284 27.5396C173.358 33.2383 172.028 38.2725 169.315 38.7838C166.601 39.2952 163.531 35.0899 162.457 29.3912C161.383 23.6925 164.685 14.2162 164.685 14.2162C164.685 14.2162 171.21 21.8409 172.284 27.5396Z" fill="white"/>
<path id="Vector_8" d="M192.877 54.052C189.477 58.7494 184.907 61.2447 182.67 59.6255C180.433 58.0062 181.377 52.8856 184.777 48.1882C188.177 43.4908 197.33 39.3746 197.33 39.3746C197.33 39.3746 196.278 49.3546 192.877 54.052Z" fill="white"/>
</g>
<path id="pot-bottom" d="M291 477.5H240C238.807 477.499 237.663 477.024 236.82 476.18C235.976 475.337 235.501 474.193 235.5 473V458.02C235.504 454.17 237.036 450.479 239.758 447.757C242.48 445.035 246.17 443.504 250.02 443.5H257.5C257.898 443.5 258.279 443.341 258.56 443.06C258.841 442.779 259 442.398 259 442V435C259.001 434.337 259.264 433.702 259.733 433.233C260.202 432.764 260.837 432.501 261.5 432.5H269.5C270.163 432.501 270.798 432.764 271.267 433.233C271.736 433.702 271.999 434.337 272 435V442C272 442.398 272.159 442.779 272.44 443.06C272.721 443.341 273.102 443.5 273.5 443.5H280.98C284.83 443.504 288.52 445.035 291.242 447.757C293.964 450.479 295.496 454.17 295.5 458.02V473C295.499 474.193 295.024 475.337 294.181 476.181C293.337 477.024 292.193 477.499 291 477.5Z" fill="#CCCCCC"/>
<path id="pot-top" d="M197 117.5H146C144.807 117.499 143.663 117.024 142.819 116.181C141.976 115.337 141.501 114.193 141.5 113V98.0195C141.504 94.17 143.036 90.4795 145.758 87.7575C148.48 85.0355 152.17 83.5044 156.02 83.5H163.5C163.898 83.4996 164.279 83.3414 164.56 83.0602C164.841 82.779 165 82.3977 165 82V75C165.001 74.3372 165.264 73.7017 165.733 73.2331C166.202 72.7644 166.837 72.5008 167.5 72.5H175.5C176.163 72.5008 176.798 72.7644 177.267 73.2331C177.736 73.7017 177.999 74.3372 178 75V82C178 82.3977 178.159 82.779 178.44 83.0602C178.721 83.3414 179.102 83.4996 179.5 83.5H186.98C190.83 83.5044 194.52 85.0355 197.242 87.7575C199.964 90.4795 201.496 94.17 201.5 98.0195V113C201.499 114.193 201.024 115.337 200.181 116.181C199.337 117.024 198.193 117.499 197 117.5Z" fill="#CCCCCC"/>
<g id="Shelf">
<path id="Vector_9" d="M323 593H17C12.4929 592.995 8.1718 591.202 4.98477 588.015C1.79775 584.828 0.00505274 580.507 0 576V17C0.00505274 12.4929 1.79775 8.1718 4.98477 4.98477C8.1718 1.79775 12.4929 0.00505274 17 0H323C327.507 0.00507387 331.828 1.79777 335.015 4.98479C338.202 8.17181 339.995 12.4929 340 17V576C339.995 580.507 338.202 584.828 335.015 588.015C331.828 591.202 327.507 592.995 323 593ZM17 2C13.0231 2.0045 9.21045 3.58629 6.39838 6.39836C3.58631 9.21043 2.0045 13.0231 2 17V576C2.0045 579.977 3.58631 583.79 6.39838 586.602C9.21045 589.414 13.0231 590.996 17 591H323C326.977 590.996 330.79 589.414 333.602 586.602C336.414 583.79 337.996 579.977 338 576V17C337.996 13.0231 336.414 9.21043 333.602 6.39836C330.79 3.58629 326.977 2.0045 323 2H17Z" fill="white"/>
<path id="Vector_10" d="M339 115.453H1V117.453H339V115.453Z" fill="white"/>
<path id="Vector_11" d="M339 235.484H1V237.484H339V235.484Z" fill="white"/>
<path id="Vector_12" d="M339 355.516H1V357.516H339V355.516Z" fill="white"/>
<path id="Vector_13" d="M339 475.547H1V477.547H339V475.547Z" fill="white"/>
</g>
<g id="books-vertical">
<path id="Vector_14" d="M73 272H32V287H73V272Z" fill="white"/>
<path id="Vector_15" d="M73 321H32V336H73V321Z" fill="white"/>
<path id="Vector_16" d="M70 358H36C34.6744 357.998 33.4035 357.471 32.4662 356.534C31.5288 355.596 31.0015 354.326 31 353V256C31.0015 254.674 31.5288 253.404 32.4662 252.466C33.4035 251.529 34.6744 251.002 36 251H70C71.3256 251.002 72.5965 251.529 73.5338 252.466C74.4712 253.404 74.9985 254.674 75 256V353C74.9985 354.326 74.4712 355.596 73.5338 356.534C72.5965 357.471 71.3256 357.998 70 358ZM36 253C35.2046 253.001 34.4421 253.317 33.8797 253.88C33.3173 254.442 33.0009 255.205 33 256V353C33.0009 353.795 33.3173 354.558 33.8797 355.12C34.4421 355.683 35.2046 355.999 36 356H70C70.7954 355.999 71.5579 355.683 72.1203 355.12C72.6827 354.558 72.9991 353.795 73 353V256C72.9991 255.205 72.6827 254.442 72.1203 253.88C71.5579 253.317 70.7954 253.001 70 253H36Z" fill="white"/>
<path id="Vector_17" d="M136 272H95V287H136V272Z" fill="white"/>
<path id="Vector_18" d="M136 321H95V336H136V321Z" fill="white"/>
<path id="Vector_19" d="M133 358H99C97.6744 357.998 96.4035 357.471 95.4662 356.534C94.5288 355.596 94.0015 354.326 94 353V256C94.0015 254.674 94.5288 253.404 95.4662 252.466C96.4035 251.529 97.6744 251.002 99 251H133C134.326 251.002 135.596 251.529 136.534 252.466C137.471 253.404 137.998 254.674 138 256V353C137.998 354.326 137.471 355.596 136.534 356.534C135.596 357.471 134.326 357.998 133 358ZM99 253C98.2046 253.001 97.4421 253.317 96.8797 253.88C96.3173 254.442 96.0009 255.205 96 256V353C96.0009 353.795 96.3173 354.558 96.8797 355.12C97.4421 355.683 98.2046 355.999 99 356H133C133.795 355.999 134.558 355.683 135.12 355.12C135.683 354.558 135.999 353.795 136 353V256C135.999 255.205 135.683 254.442 135.12 253.88C134.558 253.317 133.795 253.001 133 253H99Z" fill="white"/>
<path id="Vector_20" d="M236 151H195V166H236V151Z" fill="white"/>
<path id="Vector_21" d="M236 200H195V215H236V200Z" fill="white"/>
<path id="Vector_22" d="M233 237H199C197.674 236.998 196.404 236.471 195.466 235.534C194.529 234.596 194.002 233.326 194 232V135C194.002 133.674 194.529 132.404 195.466 131.466C196.404 130.529 197.674 130.002 199 130H233C234.326 130.002 235.597 130.529 236.534 131.466C237.471 132.404 237.998 133.674 238 135V232C237.998 233.326 237.471 234.596 236.534 235.534C235.597 236.471 234.326 236.998 233 237ZM199 132C198.205 132.001 197.442 132.317 196.88 132.88C196.317 133.442 196.001 134.205 196 135V232C196.001 232.795 196.317 233.558 196.88 234.12C197.442 234.683 198.205 234.999 199 235H233C233.795 234.999 234.558 234.683 235.12 234.12C235.683 233.558 235.999 232.795 236 232V135C235.999 134.205 235.683 133.442 235.12 132.88C234.558 132.317 233.795 132.001 233 132H199Z" fill="white"/>
<path id="Vector_23" d="M299 151H258V166H299V151Z" fill="white"/>
<path id="Vector_24" d="M299 200H258V215H299V200Z" fill="white"/>
<path id="Vector_25" d="M296 237H262C260.674 236.998 259.404 236.471 258.466 235.534C257.529 234.596 257.002 233.326 257 232V135C257.002 133.674 257.529 132.404 258.466 131.466C259.404 130.529 260.674 130.002 262 130H296C297.326 130.002 298.597 130.529 299.534 131.466C300.471 132.404 300.998 133.674 301 135V232C300.998 233.326 300.471 234.596 299.534 235.534C298.597 236.471 297.326 236.998 296 237ZM262 132C261.205 132.001 260.442 132.317 259.88 132.88C259.317 133.442 259.001 134.205 259 135V232C259.001 232.795 259.317 233.558 259.88 234.12C260.442 234.683 261.205 234.999 262 235H296C296.795 234.999 297.558 234.683 298.12 234.12C298.683 233.558 298.999 232.795 299 232V135C298.999 134.205 298.683 133.442 298.12 132.88C297.558 132.317 296.795 132.001 296 132H262Z" fill="white"/>
</g>
<g id="book-down-move">
<path id="Vector_26" d="M178.866 243.285L140.486 257.706L177.533 356.297L215.913 341.875L178.866 243.285Z" fill="white"/>
<path id="Vector_27" d="M180.144 356.883C179.127 356.881 178.135 356.569 177.299 355.99C176.464 355.41 175.824 354.59 175.466 353.639L141.346 262.838C140.881 261.597 140.928 260.221 141.475 259.014C142.023 257.807 143.027 256.867 144.267 256.399L176.095 244.439C176.709 244.208 177.364 244.101 178.02 244.122C178.676 244.144 179.322 244.295 179.92 244.566C180.518 244.838 181.056 245.224 181.505 245.704C181.953 246.183 182.303 246.747 182.534 247.361L216.654 338.162C217.119 339.403 217.072 340.778 216.525 341.986C215.977 343.193 214.973 344.133 213.733 344.601L181.905 356.561C181.342 356.773 180.746 356.882 180.144 356.883ZM177.855 246.118C177.494 246.119 177.136 246.184 176.798 246.312L144.971 258.271C144.227 258.552 143.624 259.116 143.296 259.84C142.967 260.565 142.939 261.39 143.218 262.135L177.338 352.936C177.477 353.304 177.687 353.642 177.956 353.93C178.225 354.218 178.548 354.45 178.907 354.612C179.266 354.775 179.653 354.866 180.047 354.879C180.441 354.892 180.833 354.827 181.202 354.688L213.029 342.729C213.773 342.448 214.376 341.884 214.704 341.16C215.033 340.435 215.061 339.61 214.782 338.865L180.662 248.064C180.447 247.494 180.063 247.002 179.562 246.654C179.06 246.306 178.465 246.119 177.855 246.118Z" fill="white"/>
</g>
<g id="book-up-move">
<path id="Vector_28" d="M40.8143 124.148L2.43448 138.57L39.5455 237.33L77.9253 222.908L40.8143 124.148Z" fill="white"/>
<path id="Vector_29" d="M42.1439 237.883C41.1271 237.881 40.1349 237.569 39.2993 236.99C38.4638 236.41 37.8243 235.59 37.4661 234.639L3.34582 143.838C2.8811 142.596 2.9277 141.221 3.47538 140.014C4.02306 138.807 5.0271 137.867 6.26732 137.399L38.0947 125.439C38.7094 125.208 39.3635 125.101 40.0198 125.122C40.6761 125.144 41.3216 125.295 41.9196 125.566C42.5176 125.838 43.0562 126.224 43.5048 126.704C43.9534 127.183 44.3031 127.747 44.5339 128.361L78.6542 219.162C79.1189 220.403 79.0723 221.778 78.5246 222.986C77.9769 224.193 76.9729 225.133 75.7327 225.601L43.9053 237.561C43.3423 237.773 42.7456 237.882 42.1439 237.883ZM39.8552 127.118C39.4941 127.119 39.1361 127.184 38.7982 127.312L6.97106 139.271C6.22685 139.552 5.62436 140.116 5.29572 140.84C4.96709 141.565 4.93914 142.39 5.21801 143.135L39.3382 233.936C39.4768 234.304 39.6866 234.642 39.9558 234.93C40.225 235.218 40.5481 235.449 40.9069 235.612C41.2657 235.775 41.653 235.866 42.0468 235.879C42.4405 235.892 42.833 235.827 43.2018 235.688L75.0289 223.729C75.7731 223.448 76.3756 222.884 76.7043 222.16C77.0329 221.435 77.0608 220.61 76.782 219.865L42.6617 129.064C42.4467 128.494 42.0631 128.002 41.5618 127.654C41.0605 127.306 40.4653 127.119 39.8552 127.118Z" fill="white"/>
</g>
</g>
</svg>
