<svg width="108" height="168" viewBox="0 0 108 168" fill="none" xmlns="http://www.w3.org/2000/svg">
<path d="M103.571 166.833C102.128 167.503 100.477 167.571 98.9829 167.024C97.4886 166.477 96.2729 165.359 95.6031 163.915L61.0921 89.5313C60.4226 88.0879 60.354 86.4376 60.9012 84.9435C61.4484 83.4494 62.5666 82.2338 64.01 81.5642C65.4534 80.8945 67.1037 80.8256 68.5979 81.3726C70.092 81.9196 71.3077 83.0376 71.9776 84.4809L106.489 158.865C107.158 160.309 107.227 161.959 106.68 163.453C106.133 164.947 105.015 166.163 103.571 166.833Z" fill="#3F3D56"/>
<path d="M69.0599 92.4488C60.4482 96.4443 50.845 97.7964 41.4648 96.3341C32.0846 94.8718 23.3487 90.6607 16.3617 84.2335C9.37481 77.8063 4.45068 69.4515 2.21203 60.2258C-0.0266198 51 0.520766 41.3175 3.78497 32.4029C7.04917 23.4882 12.8835 15.7416 20.5503 10.1428C28.2172 4.54405 37.372 1.34447 46.8573 0.948694C56.3425 0.552919 65.7322 2.97872 73.8387 7.91937C81.9453 12.86 88.4048 20.0936 92.4003 28.7054C97.7431 40.2555 98.2863 53.4532 93.9107 65.4033C89.5351 77.3534 80.5979 87.0799 69.0599 92.4488ZM33.7072 16.2505C27.2484 19.2472 21.8232 24.0918 18.1177 30.1717C14.4122 36.2516 12.5929 43.2938 12.8897 50.4078C13.1865 57.5217 15.5862 64.3879 19.7853 70.138C23.9844 75.8881 29.7943 80.2639 36.4803 82.712C43.1664 85.1602 50.4281 85.5707 57.3475 83.8917C64.2668 82.2127 70.5329 78.5196 75.3533 73.2794C80.1737 68.0392 83.332 61.4873 84.4288 54.4521C85.5255 47.417 84.5114 40.2146 81.5148 33.7558C77.4881 25.1023 70.1932 18.3994 61.2306 15.1177C52.2681 11.836 42.3698 12.2434 33.7072 16.2505Z" fill="#3F3D56"/>
</svg>
